<svg width="640" height="360" viewBox="0 0 640 360" fill="none" xmlns="http://www.w3.org/2000/svg">
  <rect width="640" height="360" rx="28" fill="#EDE9FE"/>
  <rect x="88" y="72" width="464" height="232" rx="24" fill="#FFFFFF" stroke="#C4B5FD" stroke-width="3"/>
  <rect x="132" y="238" width="48" height="34" rx="10" fill="#7C3AED"/>
  <rect x="212" y="188" width="48" height="84" rx="10" fill="#8B5CF6"/>
  <rect x="292" y="142" width="48" height="130" rx="10" fill="#A78BFA"/>
  <rect x="372" y="104" width="48" height="168" rx="10" fill="#6366F1"/>
  <rect x="452" y="164" width="48" height="108" rx="10" fill="#4F46E5"/>
  <path d="M134 178L234 132L318 156L416 94L504 126" stroke="#111827" stroke-width="10" stroke-linecap="round" stroke-linejoin="round"/>
  <circle cx="134" cy="178" r="10" fill="#111827"/>
  <circle cx="234" cy="132" r="10" fill="#111827"/>
  <circle cx="318" cy="156" r="10" fill="#111827"/>
  <circle cx="416" cy="94" r="10" fill="#111827"/>
  <circle cx="504" cy="126" r="10" fill="#111827"/>
</svg>
